<svg width="137" height="33" viewBox="0 0 137 33" fill="none" xmlns="http://www.w3.org/2000/svg">
<path d="M1.15909 11.4205V9.54545H14.25V11.4205H8.76136V27H6.64773V11.4205H1.15909ZM17.2393 27V13.9091H19.2507V27H17.2393ZM18.2621 11.7273C17.87 11.7273 17.532 11.5938 17.2479 11.3267C16.9695 11.0597 16.8303 10.7386 16.8303 10.3636C16.8303 9.98864 16.9695 9.66761 17.2479 9.40057C17.532 9.13352 17.87 9 18.2621 9C18.6541 9 18.9893 9.13352 19.2678 9.40057C19.5518 9.66761 19.6939 9.98864 19.6939 10.3636C19.6939 10.7386 19.5518 11.0597 19.2678 11.3267C18.9893 11.5938 18.6541 11.7273 18.2621 11.7273ZM28.4233 27.2727C27.1619 27.2727 26.0739 26.9943 25.1591 26.4375C24.25 25.875 23.5483 25.0909 23.054 24.0852C22.5653 23.0739 22.321 21.8977 22.321 20.5568C22.321 19.2159 22.5653 18.0341 23.054 17.0114C23.5483 15.983 24.2358 15.1818 25.1165 14.608C26.0028 14.0284 27.0369 13.7386 28.2188 13.7386C28.9006 13.7386 29.5739 13.8523 30.2386 14.0795C30.9034 14.3068 31.5085 14.6761 32.054 15.1875C32.5994 15.6932 33.0341 16.3636 33.358 17.1989C33.6818 18.0341 33.8438 19.0625 33.8438 20.2841V21.1364H23.7528V19.3977H31.7983C31.7983 18.6591 31.6506 18 31.3551 17.4205C31.0653 16.8409 30.6506 16.3835 30.1108 16.0483C29.5767 15.7131 28.946 15.5455 28.2188 15.5455C27.4176 15.5455 26.7244 15.7443 26.1392 16.142C25.5597 16.5341 25.1136 17.0455 24.8011 17.6761C24.4886 18.3068 24.3324 18.983 24.3324 19.7045V20.8636C24.3324 21.8523 24.5028 22.6903 24.8438 23.3778C25.1903 24.0597 25.6705 24.5795 26.2841 24.9375C26.8977 25.2898 27.6108 25.4659 28.4233 25.4659C28.9517 25.4659 29.429 25.392 29.8551 25.2443C30.2869 25.0909 30.6591 24.8636 30.9716 24.5625C31.2841 24.2557 31.5256 23.875 31.696 23.4205L33.6392 23.9659C33.4347 24.625 33.0909 25.2045 32.608 25.7045C32.125 26.1989 31.5284 26.5852 30.8182 26.8636C30.108 27.1364 29.3097 27.2727 28.4233 27.2727ZM38.9148 19.125V27H36.9034V13.9091H38.8466V15.9545H39.017C39.3239 15.2898 39.7898 14.7557 40.4148 14.3523C41.0398 13.9432 41.8466 13.7386 42.8352 13.7386C43.7216 13.7386 44.4972 13.9205 45.1619 14.2841C45.8267 14.642 46.3438 15.1875 46.7131 15.9205C47.0824 16.6477 47.267 17.5682 47.267 18.6818V27H45.2557V18.8182C45.2557 17.7898 44.9886 16.9886 44.4545 16.4148C43.9205 15.8352 43.1875 15.5455 42.2557 15.5455C41.6136 15.5455 41.0398 15.6847 40.5341 15.9631C40.0341 16.2415 39.6392 16.6477 39.3494 17.1818C39.0597 17.7159 38.9148 18.3636 38.9148 19.125ZM55.8857 27.2727C54.7947 27.2727 53.8317 26.9972 52.9964 26.446C52.1612 25.8892 51.5078 25.1051 51.0362 24.0938C50.5646 23.0767 50.3288 21.875 50.3288 20.4886C50.3288 19.1136 50.5646 17.9205 51.0362 16.9091C51.5078 15.8977 52.1641 15.1165 53.005 14.5653C53.8459 14.0142 54.8175 13.7386 55.9197 13.7386C56.772 13.7386 57.4453 13.8807 57.9396 14.1648C58.4396 14.4432 58.8203 14.7614 59.0817 15.1193C59.3487 15.4716 59.5561 15.7614 59.7038 15.9886H59.8743V9.54545H61.8857V27H59.9425V24.9886H59.7038C59.5561 25.2273 59.3459 25.5284 59.0732 25.892C58.8004 26.25 58.4112 26.571 57.9055 26.8551C57.3999 27.1335 56.7266 27.2727 55.8857 27.2727ZM56.1584 25.4659C56.9652 25.4659 57.647 25.2557 58.2038 24.8352C58.7607 24.4091 59.1839 23.821 59.4737 23.071C59.7635 22.3153 59.9084 21.4432 59.9084 20.4545C59.9084 19.4773 59.7663 18.6222 59.4822 17.8892C59.1982 17.1506 58.7777 16.5767 58.2209 16.1676C57.6641 15.7528 56.9766 15.5455 56.1584 15.5455C55.3061 15.5455 54.5959 15.7642 54.0277 16.2017C53.4652 16.6335 53.0419 17.2216 52.7578 17.9659C52.4794 18.7045 52.3402 19.5341 52.3402 20.4545C52.3402 21.3864 52.4822 22.233 52.7663 22.9943C53.0561 23.75 53.4822 24.3523 54.0447 24.8011C54.6129 25.2443 55.3175 25.4659 56.1584 25.4659ZM69.701 27.3068C68.8714 27.3068 68.1186 27.1506 67.4425 26.8381C66.7663 26.5199 66.2294 26.0625 65.8317 25.4659C65.4339 24.8636 65.2351 24.1364 65.2351 23.2841C65.2351 22.5341 65.3828 21.9261 65.6783 21.4602C65.9737 20.9886 66.3686 20.6193 66.8629 20.3523C67.3572 20.0852 67.9027 19.8864 68.4993 19.7557C69.1016 19.6193 69.7067 19.5114 70.3146 19.4318C71.1101 19.3295 71.755 19.2528 72.2493 19.2017C72.7493 19.1449 73.1129 19.0511 73.3402 18.9205C73.5732 18.7898 73.6896 18.5625 73.6896 18.2386V18.1705C73.6896 17.3295 73.4595 16.6761 72.9993 16.2102C72.5447 15.7443 71.8544 15.5114 70.9283 15.5114C69.968 15.5114 69.2152 15.7216 68.6697 16.142C68.1243 16.5625 67.7408 17.0114 67.5192 17.4886L65.6101 16.8068C65.951 16.0114 66.4055 15.392 66.9737 14.9489C67.5476 14.5 68.1726 14.1875 68.8487 14.0114C69.5305 13.8295 70.201 13.7386 70.8601 13.7386C71.2805 13.7386 71.7635 13.7898 72.3089 13.892C72.8601 13.9886 73.3913 14.1903 73.9027 14.4972C74.4197 14.804 74.8487 15.267 75.1896 15.8864C75.5305 16.5057 75.701 17.3352 75.701 18.375V27H73.6896V25.2273H73.5874C73.451 25.5114 73.2237 25.8153 72.9055 26.1392C72.5874 26.4631 72.1641 26.7386 71.6357 26.9659C71.1072 27.1932 70.4624 27.3068 69.701 27.3068ZM70.0078 25.5C70.8033 25.5 71.4737 25.3438 72.0192 25.0312C72.5703 24.7188 72.9851 24.3153 73.2635 23.821C73.5476 23.3267 73.6896 22.8068 73.6896 22.2614V20.4205C73.6044 20.5227 73.4169 20.6165 73.1271 20.7017C72.843 20.7812 72.5135 20.8523 72.1385 20.9148C71.7692 20.9716 71.4084 21.0227 71.0561 21.0682C70.7095 21.108 70.4283 21.142 70.2124 21.1705C69.6896 21.2386 69.201 21.3494 68.7464 21.5028C68.2976 21.6506 67.9339 21.875 67.6555 22.1761C67.3828 22.4716 67.2464 22.875 67.2464 23.3864C67.2464 24.0852 67.505 24.6136 68.022 24.9716C68.5447 25.3239 69.2067 25.5 70.0078 25.5ZM78.9972 27V25.4659L86.429 15.9205V15.7841H79.2358V13.9091H89.0199V15.5114L81.7926 24.9886V25.125H89.2585V27H78.9972ZM97.2997 27.2727C96.1179 27.2727 95.081 26.9915 94.1889 26.429C93.3026 25.8665 92.6094 25.0795 92.1094 24.0682C91.6151 23.0568 91.3679 21.875 91.3679 20.5227C91.3679 19.1591 91.6151 17.9687 92.1094 16.9517C92.6094 15.9347 93.3026 15.1449 94.1889 14.5824C95.081 14.0199 96.1179 13.7386 97.2997 13.7386C98.4815 13.7386 99.5156 14.0199 100.402 14.5824C101.294 15.1449 101.987 15.9347 102.482 16.9517C102.982 17.9687 103.232 19.1591 103.232 20.5227C103.232 21.875 102.982 23.0568 102.482 24.0682C101.987 25.0795 101.294 25.8665 100.402 26.429C99.5156 26.9915 98.4815 27.2727 97.2997 27.2727ZM97.2997 25.4659C98.1974 25.4659 98.9361 25.2358 99.5156 24.7756C100.095 24.3153 100.524 23.7102 100.803 22.9602C101.081 22.2102 101.22 21.3977 101.22 20.5227C101.22 19.6477 101.081 18.8324 100.803 18.0767C100.524 17.321 100.095 16.7102 99.5156 16.2443C98.9361 15.7784 98.1974 15.5455 97.2997 15.5455C96.402 15.5455 95.6634 15.7784 95.0838 16.2443C94.5043 16.7102 94.0753 17.321 93.7969 18.0767C93.5185 18.8324 93.3793 19.6477 93.3793 20.5227C93.3793 21.3977 93.5185 22.2102 93.7969 22.9602C94.0753 23.7102 94.5043 24.3153 95.0838 24.7756C95.6634 25.2358 96.402 25.4659 97.2997 25.4659ZM96.3793 12.1364L98.4588 8.18182H100.811L98.152 12.1364H96.3793ZM108.313 19.125V27H106.302V13.9091H108.245V15.9545H108.415C108.722 15.2898 109.188 14.7557 109.813 14.3523C110.438 13.9432 111.245 13.7386 112.234 13.7386C113.12 13.7386 113.896 13.9205 114.56 14.2841C115.225 14.642 115.742 15.1875 116.112 15.9205C116.481 16.6477 116.665 17.5682 116.665 18.6818V27H114.654V18.8182C114.654 17.7898 114.387 16.9886 113.853 16.4148C113.319 15.8352 112.586 15.5455 111.654 15.5455C111.012 15.5455 110.438 15.6847 109.933 15.9631C109.433 16.2415 109.038 16.6477 108.748 17.1818C108.458 17.7159 108.313 18.3636 108.313 19.125Z" fill="black"/>
<path d="M123.5 1.5L121.25 4.5V15C121.25 15.3978 121.408 15.7794 121.689 16.0607C121.971 16.342 122.352 16.5 122.75 16.5H133.25C133.648 16.5 134.029 16.342 134.311 16.0607C134.592 15.7794 134.75 15.3978 134.75 15V4.5L132.5 1.5H123.5Z" stroke="#111111" stroke-width="2" stroke-linecap="round" stroke-linejoin="round"/>
<path d="M121.25 4.5H134.75" stroke="#111111" stroke-width="2" stroke-linecap="round" stroke-linejoin="round"/>
<path d="M131 7.5C131 8.29565 130.684 9.05871 130.121 9.62132C129.559 10.1839 128.796 10.5 128 10.5C127.204 10.5 126.441 10.1839 125.879 9.62132C125.316 9.05871 125 8.29565 125 7.5" stroke="#111111" stroke-width="2" stroke-linecap="round" stroke-linejoin="round"/>
</svg>
